<?xml version="1.0" encoding="utf-8"?>
<!-- Generator: Adobe Illustrator 24.0.1, SVG Export Plug-In . SVG Version: 6.00 Build 0)  -->
<svg version="1.1" id="katman_1" xmlns="http://www.w3.org/2000/svg" xmlns:xlink="http://www.w3.org/1999/xlink" x="0px" y="0px"
	 viewBox="0 0 619.8 71.1" style="enable-background:new 0 0 619.8 71.1;" xml:space="preserve">
<style type="text/css">
	.st0{fill:#BE1622;}
</style>
<g>
	<g>
		<path d="M135.2,30.4c1,0.6,1.8,1.4,2.3,2.4v-3h8.5v21.7h-8.5v-3c-0.5,1-1.3,1.8-2.3,2.4c-1,0.6-2.2,0.9-3.6,0.9
			c-1.7,0-3.2-0.4-4.6-1.3c-1.4-0.9-2.4-2.2-3.2-3.8c-0.8-1.7-1.2-3.7-1.2-5.9c0-2.3,0.4-4.3,1.2-5.9c0.8-1.7,1.8-3,3.2-3.8
			c1.4-0.9,2.9-1.3,4.6-1.3C133,29.5,134.2,29.8,135.2,30.4z M132.1,37.9c-0.6,0.6-0.9,1.5-0.9,2.7s0.3,2,0.9,2.7
			c0.6,0.6,1.3,1,2.3,1c0.9,0,1.7-0.3,2.3-1c0.6-0.6,0.9-1.5,0.9-2.7s-0.3-2-0.9-2.7c-0.6-0.6-1.3-1-2.3-1
			C133.5,36.9,132.7,37.3,132.1,37.9z"/>
		<path d="M161.3,30.4c1,0.6,1.8,1.4,2.3,2.4V23h8.5v28.4h-8.5v-3c-0.5,1-1.3,1.8-2.3,2.4c-1,0.6-2.2,0.9-3.6,0.9
			c-1.7,0-3.2-0.4-4.6-1.3c-1.4-0.9-2.4-2.2-3.2-3.8c-0.8-1.7-1.2-3.7-1.2-5.9c0-2.3,0.4-4.3,1.2-5.9c0.8-1.7,1.8-3,3.2-3.8
			c1.4-0.9,2.9-1.3,4.6-1.3C159.1,29.5,160.3,29.8,161.3,30.4z M158.3,37.9c-0.6,0.6-0.9,1.5-0.9,2.7s0.3,2,0.9,2.7
			c0.6,0.6,1.3,1,2.3,1c0.9,0,1.7-0.3,2.3-1c0.6-0.6,0.9-1.5,0.9-2.7s-0.3-2-0.9-2.7c-0.6-0.6-1.3-1-2.3-1S158.8,37.3,158.3,37.9z"
			/>
		<path d="M187.4,30.4c1,0.6,1.8,1.4,2.3,2.4v-3h8.5v21.7h-8.5v-3c-0.5,1-1.3,1.8-2.3,2.4c-1,0.6-2.2,0.9-3.6,0.9
			c-1.7,0-3.2-0.4-4.6-1.3c-1.4-0.9-2.4-2.2-3.2-3.8c-0.8-1.7-1.2-3.7-1.2-5.9c0-2.3,0.4-4.3,1.2-5.9c0.8-1.7,1.8-3,3.2-3.8
			c1.4-0.9,2.9-1.3,4.6-1.3C185.2,29.5,186.4,29.8,187.4,30.4z M184.4,37.9c-0.6,0.6-0.9,1.5-0.9,2.7s0.3,2,0.9,2.7
			c0.6,0.6,1.3,1,2.3,1c0.9,0,1.7-0.3,2.3-1c0.6-0.6,0.9-1.5,0.9-2.7s-0.3-2-0.9-2.7c-0.6-0.6-1.3-1-2.3-1S185,37.3,184.4,37.9z"/>
		<path d="M223.1,32.1c1.4,1.7,2.1,3.9,2.1,6.8v12.6h-8.5V39.9c0-1-0.3-1.8-0.8-2.4c-0.6-0.6-1.3-0.9-2.2-0.9s-1.7,0.3-2.2,0.9
			c-0.5,0.6-0.8,1.4-0.8,2.4v11.5h-8.5V29.8h8.5v3.3c0.7-1,1.6-1.9,2.7-2.5c1.1-0.6,2.4-1,4-1C219.8,29.6,221.7,30.4,223.1,32.1z"/>
		<path d="M240.3,30.4c1,0.6,1.8,1.4,2.3,2.4v-3h8.5v21.7h-8.5v-3c-0.5,1-1.3,1.8-2.3,2.4c-1,0.6-2.2,0.9-3.6,0.9
			c-1.7,0-3.2-0.4-4.6-1.3c-1.4-0.9-2.4-2.2-3.2-3.8c-0.8-1.7-1.2-3.7-1.2-5.9c0-2.3,0.4-4.3,1.2-5.9c0.8-1.7,1.8-3,3.2-3.8
			c1.4-0.9,2.9-1.3,4.6-1.3C238.1,29.5,239.3,29.8,240.3,30.4z M237.2,37.9c-0.6,0.6-0.9,1.5-0.9,2.7s0.3,2,0.9,2.7
			c0.6,0.6,1.3,1,2.3,1c0.9,0,1.7-0.3,2.3-1c0.6-0.6,0.9-1.5,0.9-2.7s-0.3-2-0.9-2.7c-0.6-0.6-1.3-1-2.3-1
			C238.6,36.9,237.8,37.3,237.2,37.9z"/>
		<path d="M270.6,31.6c1.8,1.4,2.9,3.3,3.3,5.6H266c-0.3-1.2-1.2-1.8-2.6-1.8c-0.8,0-1.2,0.3-1.2,0.9c0,0.4,0.3,0.8,0.9,1
			s1.5,0.5,2.7,0.7c1.6,0.3,3,0.7,4.2,1.1c1.2,0.4,2.2,1.1,3,2.1c0.8,0.9,1.3,2.2,1.3,3.9c0,1.3-0.4,2.4-1.1,3.4s-1.8,1.8-3.1,2.3
			c-1.4,0.6-3,0.8-4.9,0.8c-3.1,0-5.6-0.7-7.5-2c-1.8-1.3-3-3.3-3.4-5.8h8.2c0.2,1.3,1,1.9,2.7,1.9c0.9,0,1.3-0.3,1.3-0.9
			c0-0.5-0.3-0.8-0.9-1.1c-0.6-0.2-1.5-0.5-2.8-0.7c-1.7-0.3-3-0.7-4.1-1.1c-1.1-0.4-2-1-2.9-2c-0.8-0.9-1.2-2.2-1.2-3.8
			c0-1.3,0.3-2.5,1-3.5c0.7-1,1.7-1.8,3.1-2.4s3-0.9,5-0.9C266.5,29.5,268.8,30.2,270.6,31.6z"/>
		<path d="M288.7,30.4c1,0.6,1.8,1.4,2.3,2.4v-3h8.5v21.7H291v-3c-0.5,1-1.3,1.8-2.3,2.4c-1,0.6-2.2,0.9-3.6,0.9
			c-1.7,0-3.2-0.4-4.6-1.3c-1.4-0.9-2.4-2.2-3.2-3.8c-0.8-1.7-1.2-3.7-1.2-5.9c0-2.3,0.4-4.3,1.2-5.9c0.8-1.7,1.8-3,3.2-3.8
			c1.4-0.9,2.9-1.3,4.6-1.3C286.4,29.5,287.6,29.8,288.7,30.4z M285.6,37.9c-0.6,0.6-0.9,1.5-0.9,2.7s0.3,2,0.9,2.7
			c0.6,0.6,1.3,1,2.3,1c0.9,0,1.7-0.3,2.3-1c0.6-0.6,0.9-1.5,0.9-2.7s-0.3-2-0.9-2.7c-0.6-0.6-1.3-1-2.3-1S286.2,37.3,285.6,37.9z"
			/>
		<path d="M324.3,32.1c1.4,1.7,2.1,3.9,2.1,6.8v12.6h-8.5V39.9c0-1-0.3-1.8-0.8-2.4c-0.6-0.6-1.3-0.9-2.2-0.9
			c-0.9,0-1.7,0.3-2.2,0.9c-0.5,0.6-0.8,1.4-0.8,2.4v11.5h-8.5V23h8.5v10.1c0.7-1,1.6-1.9,2.7-2.5s2.4-1,4-1
			C321,29.6,322.9,30.4,324.3,32.1z"/>
		<path d="M330.8,20.8c0.9-0.8,2.1-1.2,3.6-1.2s2.6,0.4,3.5,1.2c0.9,0.8,1.3,1.8,1.3,3.1c0,1.2-0.4,2.2-1.3,3s-2.1,1.2-3.5,1.2
			c-1.5,0-2.7-0.4-3.6-1.2c-0.9-0.8-1.3-1.8-1.3-3C329.5,22.6,329.9,21.6,330.8,20.8z M338.6,29.8v21.7h-8.5V29.8H338.6z"/>
		<path d="M361.5,30.8c1.4,0.9,2.4,2.2,3.2,3.8c0.8,1.7,1.2,3.7,1.2,5.9c0,2.3-0.4,4.3-1.2,5.9c-0.8,1.7-1.9,3-3.2,3.8
			c-1.4,0.9-2.9,1.3-4.6,1.3c-1.4,0-2.6-0.3-3.6-0.9c-1-0.6-1.8-1.4-2.3-2.4v13.3h-8.5v-32h8.5v3c0.5-1,1.3-1.8,2.3-2.4
			s2.2-0.9,3.6-0.9C358.6,29.5,360.2,29.9,361.5,30.8z M351.8,37.9c-0.6,0.6-0.9,1.5-0.9,2.7s0.3,2,0.9,2.7c0.6,0.6,1.3,1,2.3,1
			c0.9,0,1.7-0.3,2.3-1c0.6-0.6,0.9-1.5,0.9-2.7s-0.3-2-0.9-2.7c-0.6-0.6-1.3-1-2.3-1C353.2,36.9,352.4,37.3,351.8,37.9z"/>
		<path d="M384.2,31.6c1.8,1.4,2.9,3.3,3.3,5.6h-7.9c-0.3-1.2-1.2-1.8-2.6-1.8c-0.8,0-1.2,0.3-1.2,0.9c0,0.4,0.3,0.8,0.9,1
			s1.5,0.5,2.7,0.7c1.6,0.3,3,0.7,4.2,1.1c1.2,0.4,2.2,1.1,3,2.1c0.8,0.9,1.3,2.2,1.3,3.9c0,1.3-0.4,2.4-1.1,3.4s-1.8,1.8-3.1,2.3
			c-1.4,0.6-3,0.8-4.9,0.8c-3.1,0-5.6-0.7-7.5-2c-1.8-1.3-3-3.3-3.4-5.8h8.2c0.2,1.3,1,1.9,2.7,1.9c0.9,0,1.3-0.3,1.3-0.9
			c0-0.5-0.3-0.8-0.9-1.1c-0.6-0.2-1.5-0.5-2.8-0.7c-1.7-0.3-3-0.7-4.1-1.1c-1.1-0.4-2-1-2.9-2c-0.8-0.9-1.2-2.2-1.2-3.8
			c0-1.3,0.3-2.5,1-3.5c0.7-1,1.7-1.8,3.1-2.4s3-0.9,5-0.9C380.1,29.5,382.4,30.2,384.2,31.6z"/>
		<path d="M391.6,20.8c0.9-0.8,2.1-1.2,3.6-1.2s2.6,0.4,3.5,1.2c0.9,0.8,1.3,1.8,1.3,3.1c0,1.2-0.4,2.2-1.3,3s-2.1,1.2-3.5,1.2
			c-1.5,0-2.7-0.4-3.6-1.2c-0.9-0.8-1.3-1.8-1.3-3C390.2,22.6,390.7,21.6,391.6,20.8z M399.4,29.8v21.7h-8.5V29.8H399.4z"/>
		<path d="M411.4,44.4h9v7.1H402v-6.7l8.3-7.9h-8.1v-7.1H420v6.7L411.4,44.4z"/>
		<path d="M434.5,30.4c1,0.6,1.8,1.4,2.3,2.4V23h8.5v28.4h-8.5v-3c-0.5,1-1.3,1.8-2.3,2.4c-1,0.6-2.2,0.9-3.6,0.9
			c-1.7,0-3.2-0.4-4.6-1.3c-1.4-0.9-2.4-2.2-3.2-3.8c-0.8-1.7-1.2-3.7-1.2-5.9c0-2.3,0.4-4.3,1.2-5.9c0.8-1.7,1.8-3,3.2-3.8
			c1.4-0.9,2.9-1.3,4.6-1.3C432.3,29.5,433.5,29.8,434.5,30.4z M431.5,37.9c-0.6,0.6-0.9,1.5-0.9,2.7s0.3,2,0.9,2.7
			c0.6,0.6,1.3,1,2.3,1c0.9,0,1.7-0.3,2.3-1c0.6-0.6,0.9-1.5,0.9-2.7s-0.3-2-0.9-2.7c-0.6-0.6-1.3-1-2.3-1S432,37.3,431.5,37.9z"/>
		<path d="M470,42.1h-13.6c0.1,1.1,0.3,1.8,0.7,2.2c0.4,0.4,0.9,0.6,1.6,0.6c0.9,0,1.6-0.4,2-1.3h9c-0.3,1.5-1,2.9-1.9,4.1
			c-1,1.2-2.2,2.2-3.7,2.9s-3.1,1.1-4.9,1.1c-2.2,0-4.1-0.4-5.7-1.3c-1.7-0.9-3-2.2-3.9-3.9s-1.4-3.6-1.4-5.9c0-2.3,0.5-4.2,1.4-5.9
			s2.2-3,3.9-3.9c1.7-0.9,3.6-1.3,5.7-1.3c2.2,0,4.1,0.4,5.7,1.3c1.7,0.9,3,2.1,3.9,3.8c0.9,1.6,1.4,3.6,1.4,5.8
			C470.2,40.9,470.1,41.5,470,42.1z M461.5,38.6c0-0.8-0.2-1.4-0.7-1.8c-0.5-0.4-1-0.6-1.7-0.6c-1.6,0-2.5,0.8-2.7,2.4
			C456.4,38.6,461.5,38.6,461.5,38.6z"/>
		<path d="M484.3,30.4c1,0.6,1.8,1.4,2.3,2.4v-3h8.5V51c0,2-0.4,3.9-1.1,5.5c-0.7,1.7-1.9,3-3.6,4S486.6,62,484,62
			c-3.5,0-6.2-0.8-8.3-2.4c-2-1.6-3.2-3.8-3.5-6.6h8.4c0.2,1.1,1.2,1.7,2.8,1.7c1,0,1.8-0.3,2.3-0.8c0.6-0.5,0.8-1.5,0.8-2.9v-2.6
			c-0.5,1-1.3,1.8-2.3,2.4c-1,0.6-2.2,0.9-3.6,0.9c-1.7,0-3.2-0.4-4.6-1.3c-1.4-0.9-2.4-2.2-3.2-3.8c-0.8-1.7-1.2-3.7-1.2-5.9
			c0-2.3,0.4-4.3,1.2-5.9c0.8-1.7,1.8-3,3.2-3.8c1.4-0.9,2.9-1.3,4.6-1.3C482.1,29.5,483.3,29.8,484.3,30.4z M481.2,37.9
			c-0.6,0.6-0.9,1.5-0.9,2.7s0.3,2,0.9,2.7c0.6,0.6,1.3,1,2.3,1c0.9,0,1.7-0.3,2.3-1c0.6-0.6,0.9-1.5,0.9-2.7s-0.3-2-0.9-2.7
			c-0.6-0.6-1.3-1-2.3-1C482.6,36.9,481.8,37.3,481.2,37.9z"/>
		<path d="M499.7,20.8c0.9-0.8,2.1-1.2,3.6-1.2s2.6,0.4,3.5,1.2c0.9,0.8,1.3,1.8,1.3,3.1c0,1.2-0.4,2.2-1.3,3s-2.1,1.2-3.5,1.2
			c-1.5,0-2.7-0.4-3.6-1.2c-0.9-0.8-1.3-1.8-1.3-3C498.4,22.6,498.8,21.6,499.7,20.8z M507.5,29.8v21.7H499V29.8H507.5z"/>
		<path d="M519.9,23v28.4h-8.5V23H519.9z"/>
		<g>
			<path class="st0" d="M531.3,43.3v8.1h-8.4v-8.1C522.9,43.3,531.3,43.3,531.3,43.3z"/>
			<path class="st0" d="M551.4,31.9c1.9,1.6,3.2,3.8,3.7,6.6h-9c-0.3-1.1-1-1.7-2-1.7c-0.7,0-1.2,0.3-1.6,1
				c-0.4,0.6-0.6,1.6-0.6,2.8c0,1.3,0.2,2.2,0.6,2.8c0.4,0.6,0.9,1,1.6,1c1,0,1.6-0.6,2-1.7h9c-0.5,2.8-1.7,5-3.7,6.6
				c-1.9,1.6-4.3,2.4-7.1,2.4c-2.2,0-4.1-0.4-5.7-1.3c-1.7-0.9-3-2.2-3.9-3.9s-1.4-3.6-1.4-5.9c0-2.3,0.5-4.2,1.4-5.9s2.2-3,3.9-3.9
				s3.6-1.3,5.7-1.3C547.1,29.5,549.4,30.3,551.4,31.9z"/>
			<path class="st0" d="M573.9,30.8c1.7,0.9,3.1,2.2,4.1,3.9s1.5,3.6,1.5,5.9c0,2.3-0.5,4.2-1.5,5.9s-2.3,3-4.1,3.9
				c-1.7,0.9-3.7,1.3-5.9,1.3s-4.1-0.4-5.9-1.3c-1.7-0.9-3.1-2.2-4.1-3.9s-1.5-3.6-1.5-5.9c0-2.3,0.5-4.2,1.5-5.9s2.3-3,4.1-3.9
				c1.7-0.9,3.7-1.3,5.9-1.3S572.2,29.9,573.9,30.8z M566,37.8c-0.5,0.6-0.8,1.6-0.8,2.8s0.3,2.2,0.8,2.8s1.2,0.9,2,0.9
				s1.5-0.3,2-0.9c0.5-0.6,0.8-1.6,0.8-2.8s-0.3-2.2-0.8-2.8s-1.2-0.9-2-0.9C567.2,36.9,566.6,37.2,566,37.8z"/>
			<path class="st0" d="M617.5,32.1c1.5,1.7,2.3,3.9,2.3,6.8v12.6h-8.5V39.9c0-0.9-0.3-1.6-0.8-2.2c-0.6-0.5-1.3-0.8-2.2-0.8
				s-1.7,0.3-2.2,0.8s-0.8,1.2-0.8,2.2v11.5h-8.5V39.9c0-0.9-0.3-1.6-0.8-2.2c-0.6-0.5-1.3-0.8-2.2-0.8s-1.7,0.3-2.2,0.8
				s-0.8,1.2-0.8,2.2v11.5h-8.5V29.8h8.5v2.9c0.6-0.9,1.5-1.7,2.5-2.2c1.1-0.6,2.3-0.8,3.7-0.8c1.6,0,2.9,0.3,4.1,1
				c1.2,0.7,2.2,1.6,2.9,2.9c0.8-1.1,1.8-2.1,3-2.8c1.2-0.7,2.6-1.1,4.1-1.1C613.8,29.6,616,30.4,617.5,32.1z"/>
		</g>
	</g>
	<g>
		<path class="st0" d="M103.3,0.7c-1.7-0.4-3.5,0.1-4.7,1.2C98.3,2,98,2.2,97.9,2.4L94.3,7l-2.5,3.2l-4.6,6l-1.5,1.9L81.2,24
			c-0.2,0.3,0.1,0.7,0.8,1c0.8,0.3,1.6,0.3,2,0l6.5-5.8l2.3-2l1.6-1.4l-0.6,2.7L91.7,28L88,45.6l-1.2,5.7L83,68.9
			c-0.2,0.9,0.3,1.8,1.2,2.1c1,0.3,2-0.2,2.3-1.1l6.1-18.2l2.2-6.4l6-17.8l2.8-8.4l3.8-11.3c0.1-0.2,0.1-0.4,0.2-0.6
			C108.1,4.2,106.2,1.3,103.3,0.7z"/>
		<path class="st0" d="M73.3,18.3l-10.6-0.6l1.9-15.4c0.1-0.9-0.5-1.7-1.4-2c-1-0.2-1.9,0.4-2.1,1.3l-3.7,15.7l-2.9-0.2l-6.6-0.4
			L33.5,16l2.6-9.2c0.1-0.2,0.1-0.4,0.1-0.6c0.5-2.9-1.5-5.7-4.4-6.2s-5.7,1.5-6.2,4.4l-1.9,11l-3.1-0.2L9.1,14.6
			c-0.2,0-0.4,0-0.6,0c-3,0.2-5.2,2.7-5.1,5.6c0.2,3,2.7,5.2,5.6,5.1l13.2-0.7l-0.5,2.7l-3,17.6l-0.8,4.8L1.7,50.6
			c-1,0.1-1.7,0.9-1.7,1.9c0.1,0.9,0.8,1.6,1.7,1.7L17.2,55L15,68c-0.1,0.9,0.4,1.8,1.3,2c0.9,0.3,1.9-0.3,2.2-1.2l3.8-13.5l2.8,0.1
			l17.8,0.9l5.3,0.3l-1.8,7.7c0,0.2-0.1,0.4-0.1,0.6c-0.4,2.9,1.7,5.6,4.7,6c2.9,0.4,5.6-1.7,6-4.7l1.1-9.1l8.1,0.4
			c3,0.2,5.5-2.1,5.6-5.1c0.2-3-2.1-5.5-5.1-5.6c-0.2,0-0.4,0-0.6,0l-6.8,0.4l0.5-4.1L62,25.4l0.4-3l11.2-0.6
			c0.9-0.1,1.6-0.8,1.7-1.7C75.1,19.2,74.3,18.4,73.3,18.3z M55.2,26.5l-4.3,18l-0.8,3.3l-4.6,0.3L27,49.2l-3,0.1l1.5-5.1l5.1-17.8
			l0.6-2.3l1-0.1L50,23.1l5.7-0.3h0.5L55.2,26.5z"/>
	</g>
</g>
</svg>
