<?xml version="1.0" encoding="utf-8"?>
<!-- Generator: Adobe Illustrator 24.0.1, SVG Export Plug-In . SVG Version: 6.00 Build 0)  -->
<svg version="1.1" id="katman_1" xmlns="http://www.w3.org/2000/svg" xmlns:xlink="http://www.w3.org/1999/xlink" x="0px" y="0px"
	 viewBox="0 0 519.9 71.2" style="enable-background:new 0 0 519.9 71.2;" xml:space="preserve">
<style type="text/css">
	.st0{fill:#BE1622;}
</style>
<g>
	<g>
		<path d="M135.2,30.5c1,0.6,1.8,1.4,2.3,2.4v-3h8.5v21.7h-8.5v-3c-0.5,1-1.3,1.8-2.3,2.4c-1,0.6-2.2,0.9-3.6,0.9
			c-1.7,0-3.2-0.4-4.6-1.3c-1.4-0.9-2.4-2.2-3.2-3.8c-0.8-1.7-1.2-3.7-1.2-5.9c0-2.3,0.4-4.3,1.2-5.9c0.8-1.7,1.8-3,3.2-3.8
			c1.4-0.9,2.9-1.3,4.6-1.3C133,29.6,134.2,29.9,135.2,30.5z M132.1,38c-0.6,0.6-0.9,1.5-0.9,2.7s0.3,2,0.9,2.7c0.6,0.6,1.3,1,2.3,1
			c0.9,0,1.7-0.3,2.3-1c0.6-0.6,0.9-1.5,0.9-2.7s-0.3-2-0.9-2.7c-0.6-0.6-1.3-1-2.3-1C133.5,37,132.7,37.4,132.1,38z"/>
		<path d="M161.3,30.5c1,0.6,1.8,1.4,2.3,2.4v-9.8h8.5v28.4h-8.5v-3c-0.5,1-1.3,1.8-2.3,2.4c-1,0.6-2.2,0.9-3.6,0.9
			c-1.7,0-3.2-0.4-4.6-1.3c-1.4-0.9-2.4-2.2-3.2-3.8c-0.8-1.7-1.2-3.7-1.2-5.9c0-2.3,0.4-4.3,1.2-5.9c0.8-1.7,1.8-3,3.2-3.8
			c1.4-0.9,2.9-1.3,4.6-1.3C159.1,29.6,160.3,29.9,161.3,30.5z M158.3,38c-0.6,0.6-0.9,1.5-0.9,2.7s0.3,2,0.9,2.7
			c0.6,0.6,1.3,1,2.3,1c0.9,0,1.7-0.3,2.3-1c0.6-0.6,0.9-1.5,0.9-2.7s-0.3-2-0.9-2.7c-0.6-0.6-1.3-1-2.3-1S158.8,37.4,158.3,38z"/>
		<path d="M187.4,30.5c1,0.6,1.8,1.4,2.3,2.4v-3h8.5v21.7h-8.5v-3c-0.5,1-1.3,1.8-2.3,2.4c-1,0.6-2.2,0.9-3.6,0.9
			c-1.7,0-3.2-0.4-4.6-1.3c-1.4-0.9-2.4-2.2-3.2-3.8c-0.8-1.7-1.2-3.7-1.2-5.9c0-2.3,0.4-4.3,1.2-5.9c0.8-1.7,1.8-3,3.2-3.8
			c1.4-0.9,2.9-1.3,4.6-1.3C185.2,29.6,186.4,29.9,187.4,30.5z M184.4,38c-0.6,0.6-0.9,1.5-0.9,2.7s0.3,2,0.9,2.7
			c0.6,0.6,1.3,1,2.3,1c0.9,0,1.7-0.3,2.3-1c0.6-0.6,0.9-1.5,0.9-2.7s-0.3-2-0.9-2.7c-0.6-0.6-1.3-1-2.3-1S185,37.4,184.4,38z"/>
		<path d="M223.1,32.2c1.4,1.7,2.1,3.9,2.1,6.8v12.6h-8.5V40c0-1-0.3-1.8-0.8-2.4c-0.6-0.6-1.3-0.9-2.2-0.9s-1.7,0.3-2.2,0.9
			c-0.5,0.6-0.8,1.4-0.8,2.4v11.5h-8.5V29.9h8.5v3.3c0.7-1,1.6-1.9,2.7-2.5c1.1-0.6,2.4-1,4-1C219.8,29.7,221.7,30.5,223.1,32.2z"/>
		<path d="M240.3,30.5c1,0.6,1.8,1.4,2.3,2.4v-3h8.5v21.7h-8.5v-3c-0.5,1-1.3,1.8-2.3,2.4c-1,0.6-2.2,0.9-3.6,0.9
			c-1.7,0-3.2-0.4-4.6-1.3c-1.4-0.9-2.4-2.2-3.2-3.8c-0.8-1.7-1.2-3.7-1.2-5.9c0-2.3,0.4-4.3,1.2-5.9c0.8-1.7,1.8-3,3.2-3.8
			c1.4-0.9,2.9-1.3,4.6-1.3C238.1,29.6,239.3,29.9,240.3,30.5z M237.2,38c-0.6,0.6-0.9,1.5-0.9,2.7s0.3,2,0.9,2.7
			c0.6,0.6,1.3,1,2.3,1c0.9,0,1.7-0.3,2.3-1c0.6-0.6,0.9-1.5,0.9-2.7s-0.3-2-0.9-2.7c-0.6-0.6-1.3-1-2.3-1
			C238.6,37,237.8,37.4,237.2,38z"/>
		<path d="M270.6,31.7c1.8,1.4,2.9,3.3,3.3,5.6H266c-0.3-1.2-1.2-1.8-2.6-1.8c-0.8,0-1.2,0.3-1.2,0.9c0,0.4,0.3,0.8,0.9,1
			s1.5,0.5,2.7,0.7c1.6,0.3,3,0.7,4.2,1.1c1.2,0.4,2.2,1.1,3,2.1c0.8,0.9,1.3,2.2,1.3,3.9c0,1.3-0.4,2.4-1.1,3.4s-1.8,1.8-3.1,2.3
			c-1.4,0.6-3,0.8-4.9,0.8c-3.1,0-5.6-0.7-7.5-2c-1.8-1.3-3-3.3-3.4-5.8h8.2c0.2,1.3,1,1.9,2.7,1.9c0.9,0,1.3-0.3,1.3-0.9
			c0-0.5-0.3-0.8-0.9-1.1c-0.6-0.2-1.5-0.5-2.8-0.7c-1.7-0.3-3-0.7-4.1-1.1c-1.1-0.4-2-1-2.9-2c-0.8-0.9-1.2-2.2-1.2-3.8
			c0-1.3,0.3-2.5,1-3.5c0.7-1,1.7-1.8,3.1-2.4s3-0.9,5-0.9C266.5,29.6,268.8,30.3,270.6,31.7z"/>
		<path d="M288.7,30.5c1,0.6,1.8,1.4,2.3,2.4v-3h8.5v21.7H291v-3c-0.5,1-1.3,1.8-2.3,2.4c-1,0.6-2.2,0.9-3.6,0.9
			c-1.7,0-3.2-0.4-4.6-1.3c-1.4-0.9-2.4-2.2-3.2-3.8c-0.8-1.7-1.2-3.7-1.2-5.9c0-2.3,0.4-4.3,1.2-5.9c0.8-1.7,1.8-3,3.2-3.8
			c1.4-0.9,2.9-1.3,4.6-1.3C286.4,29.6,287.6,29.9,288.7,30.5z M285.6,38c-0.6,0.6-0.9,1.5-0.9,2.7s0.3,2,0.9,2.7
			c0.6,0.6,1.3,1,2.3,1c0.9,0,1.7-0.3,2.3-1c0.6-0.6,0.9-1.5,0.9-2.7s-0.3-2-0.9-2.7c-0.6-0.6-1.3-1-2.3-1S286.2,37.4,285.6,38z"/>
		<path d="M324.3,32.2c1.4,1.7,2.1,3.9,2.1,6.8v12.6h-8.5V40c0-1-0.3-1.8-0.8-2.4c-0.6-0.6-1.3-0.9-2.2-0.9c-0.9,0-1.7,0.3-2.2,0.9
			c-0.5,0.6-0.8,1.4-0.8,2.4v11.5h-8.5V23.1h8.5v10.1c0.7-1,1.6-1.9,2.7-2.5s2.4-1,4-1C321,29.7,322.9,30.5,324.3,32.2z"/>
		<path d="M330.8,20.9c0.9-0.8,2.1-1.2,3.6-1.2s2.6,0.4,3.5,1.2c0.9,0.8,1.3,1.8,1.3,3.1c0,1.2-0.4,2.2-1.3,3s-2.1,1.2-3.5,1.2
			c-1.5,0-2.7-0.4-3.6-1.2c-0.9-0.8-1.3-1.8-1.3-3C329.5,22.7,329.9,21.7,330.8,20.9z M338.6,29.9v21.7h-8.5V29.9H338.6z"/>
		<path d="M361.5,30.9c1.4,0.9,2.4,2.2,3.2,3.8c0.8,1.7,1.2,3.7,1.2,5.9c0,2.3-0.4,4.3-1.2,5.9c-0.8,1.7-1.9,3-3.2,3.8
			c-1.4,0.9-2.9,1.3-4.6,1.3c-1.4,0-2.6-0.3-3.6-0.9c-1-0.6-1.8-1.4-2.3-2.4v13.3h-8.5v-32h8.5v3c0.5-1,1.3-1.8,2.3-2.4
			s2.2-0.9,3.6-0.9C358.6,29.6,360.2,30,361.5,30.9z M351.8,38c-0.6,0.6-0.9,1.5-0.9,2.7s0.3,2,0.9,2.7c0.6,0.6,1.3,1,2.3,1
			c0.9,0,1.7-0.3,2.3-1c0.6-0.6,0.9-1.5,0.9-2.7s-0.3-2-0.9-2.7c-0.6-0.6-1.3-1-2.3-1C353.2,37,352.4,37.4,351.8,38z"/>
		<path d="M384.2,31.7c1.8,1.4,2.9,3.3,3.3,5.6h-7.9c-0.3-1.2-1.2-1.8-2.6-1.8c-0.8,0-1.2,0.3-1.2,0.9c0,0.4,0.3,0.8,0.9,1
			s1.5,0.5,2.7,0.7c1.6,0.3,3,0.7,4.2,1.1c1.2,0.4,2.2,1.1,3,2.1c0.8,0.9,1.3,2.2,1.3,3.9c0,1.3-0.4,2.4-1.1,3.4s-1.8,1.8-3.1,2.3
			c-1.4,0.6-3,0.8-4.9,0.8c-3.1,0-5.6-0.7-7.5-2c-1.8-1.3-3-3.3-3.4-5.8h8.2c0.2,1.3,1,1.9,2.7,1.9c0.9,0,1.3-0.3,1.3-0.9
			c0-0.5-0.3-0.8-0.9-1.1c-0.6-0.2-1.5-0.5-2.8-0.7c-1.7-0.3-3-0.7-4.1-1.1c-1.1-0.4-2-1-2.9-2c-0.8-0.9-1.2-2.2-1.2-3.8
			c0-1.3,0.3-2.5,1-3.5c0.7-1,1.7-1.8,3.1-2.4s3-0.9,5-0.9C380.1,29.6,382.4,30.3,384.2,31.7z"/>
		<path d="M391.6,20.9c0.9-0.8,2.1-1.2,3.6-1.2s2.6,0.4,3.5,1.2c0.9,0.8,1.3,1.8,1.3,3.1c0,1.2-0.4,2.2-1.3,3s-2.1,1.2-3.5,1.2
			c-1.5,0-2.7-0.4-3.6-1.2c-0.9-0.8-1.3-1.8-1.3-3C390.2,22.7,390.7,21.7,391.6,20.9z M399.4,29.9v21.7h-8.5V29.9H399.4z"/>
		<path d="M411.4,44.5h9v7.1H402v-6.7l8.3-7.9h-8.1v-7.1H420v6.7L411.4,44.5z"/>
		<path d="M434.5,30.5c1,0.6,1.8,1.4,2.3,2.4v-9.8h8.5v28.4h-8.5v-3c-0.5,1-1.3,1.8-2.3,2.4c-1,0.6-2.2,0.9-3.6,0.9
			c-1.7,0-3.2-0.4-4.6-1.3c-1.4-0.9-2.4-2.2-3.2-3.8c-0.8-1.7-1.2-3.7-1.2-5.9c0-2.3,0.4-4.3,1.2-5.9c0.8-1.7,1.8-3,3.2-3.8
			c1.4-0.9,2.9-1.3,4.6-1.3C432.3,29.6,433.5,29.9,434.5,30.5z M431.5,38c-0.6,0.6-0.9,1.5-0.9,2.7s0.3,2,0.9,2.7
			c0.6,0.6,1.3,1,2.3,1c0.9,0,1.7-0.3,2.3-1c0.6-0.6,0.9-1.5,0.9-2.7s-0.3-2-0.9-2.7c-0.6-0.6-1.3-1-2.3-1S432,37.4,431.5,38z"/>
		<path d="M470,42.2h-13.6c0.1,1.1,0.3,1.8,0.7,2.2c0.4,0.4,0.9,0.6,1.6,0.6c0.9,0,1.6-0.4,2-1.3h9c-0.3,1.5-1,2.9-1.9,4.1
			c-1,1.2-2.2,2.2-3.7,2.9s-3.1,1.1-4.9,1.1c-2.2,0-4.1-0.4-5.7-1.3c-1.7-0.9-3-2.2-3.9-3.9s-1.4-3.6-1.4-5.9c0-2.3,0.5-4.2,1.4-5.9
			s2.2-3,3.9-3.9c1.7-0.9,3.6-1.3,5.7-1.3c2.2,0,4.1,0.4,5.7,1.3c1.7,0.9,3,2.1,3.9,3.8c0.9,1.6,1.4,3.6,1.4,5.8
			C470.2,41,470.1,41.6,470,42.2z M461.5,38.7c0-0.8-0.2-1.4-0.7-1.8c-0.5-0.4-1-0.6-1.7-0.6c-1.6,0-2.5,0.8-2.7,2.4
			C456.4,38.7,461.5,38.7,461.5,38.7z"/>
		<path d="M484.3,30.5c1,0.6,1.8,1.4,2.3,2.4v-3h8.5v21.2c0,2-0.4,3.9-1.1,5.5c-0.7,1.7-1.9,3-3.6,4s-3.8,1.5-6.4,1.5
			c-3.5,0-6.2-0.8-8.3-2.4c-2-1.6-3.2-3.8-3.5-6.6h8.4c0.2,1.1,1.2,1.7,2.8,1.7c1,0,1.8-0.3,2.3-0.8c0.6-0.5,0.8-1.5,0.8-2.9v-2.6
			c-0.5,1-1.3,1.8-2.3,2.4c-1,0.6-2.2,0.9-3.6,0.9c-1.7,0-3.2-0.4-4.6-1.3c-1.4-0.9-2.4-2.2-3.2-3.8c-0.8-1.7-1.2-3.7-1.2-5.9
			c0-2.3,0.4-4.3,1.2-5.9c0.8-1.7,1.8-3,3.2-3.8c1.4-0.9,2.9-1.3,4.6-1.3C482.1,29.6,483.3,29.9,484.3,30.5z M481.2,38
			c-0.6,0.6-0.9,1.5-0.9,2.7s0.3,2,0.9,2.7c0.6,0.6,1.3,1,2.3,1c0.9,0,1.7-0.3,2.3-1c0.6-0.6,0.9-1.5,0.9-2.7s-0.3-2-0.9-2.7
			c-0.6-0.6-1.3-1-2.3-1C482.6,37,481.8,37.4,481.2,38z"/>
		<path d="M499.7,20.9c0.9-0.8,2.1-1.2,3.6-1.2s2.6,0.4,3.5,1.2c0.9,0.8,1.3,1.8,1.3,3.1c0,1.2-0.4,2.2-1.3,3s-2.1,1.2-3.5,1.2
			c-1.5,0-2.7-0.4-3.6-1.2c-0.9-0.8-1.3-1.8-1.3-3C498.4,22.7,498.8,21.7,499.7,20.9z M507.5,29.9v21.7H499V29.9H507.5z"/>
		<path d="M519.9,23.1v28.4h-8.5V23.1H519.9z"/>
	</g>
	<g>
		<path class="st0" d="M103.3,0.8c-1.7-0.4-3.5,0.1-4.7,1.2c-0.3,0.1-0.6,0.3-0.7,0.5l-3.6,4.6l-2.5,3.2l-4.6,6l-1.5,1.9l-4.5,5.9
			c-0.2,0.3,0.1,0.7,0.8,1c0.8,0.3,1.6,0.3,2,0l6.5-5.8l2.3-2l1.6-1.4l-0.6,2.7l-2.1,9.5L88,45.7l-1.2,5.7L83,69
			c-0.2,0.9,0.3,1.8,1.2,2.1c1,0.3,2-0.2,2.3-1.1l6.1-18.2l2.2-6.4l6-17.8l2.8-8.4l3.8-11.3c0.1-0.2,0.1-0.4,0.2-0.6
			C108.1,4.3,106.2,1.4,103.3,0.8z"/>
		<path class="st0" d="M73.3,18.4l-10.6-0.6l1.9-15.4c0.1-0.9-0.5-1.7-1.4-2c-1-0.2-1.9,0.4-2.1,1.3l-3.7,15.7l-2.9-0.2l-6.6-0.4
			l-14.4-0.7l2.6-9.2c0.1-0.2,0.1-0.4,0.1-0.6c0.5-2.9-1.5-5.7-4.4-6.2s-5.7,1.5-6.2,4.4l-1.9,11l-3.1-0.2L9.1,14.7
			c-0.2,0-0.4,0-0.6,0c-3,0.2-5.2,2.7-5.1,5.6c0.2,3,2.7,5.2,5.6,5.1l13.2-0.7l-0.5,2.7l-3,17.6l-0.8,4.8L1.7,50.7
			c-1,0.1-1.7,0.9-1.7,1.9c0.1,0.9,0.8,1.6,1.7,1.7l15.5,0.8l-2.2,13c-0.1,0.9,0.4,1.8,1.3,2c0.9,0.3,1.9-0.3,2.2-1.2l3.8-13.5
			l2.8,0.1l17.8,0.9l5.3,0.3l-1.8,7.7c0,0.2-0.1,0.4-0.1,0.6c-0.4,2.9,1.7,5.6,4.7,6c2.9,0.4,5.6-1.7,6-4.7l1.1-9.1l8.1,0.4
			c3,0.2,5.5-2.1,5.6-5.1c0.2-3-2.1-5.5-5.1-5.6c-0.2,0-0.4,0-0.6,0l-6.8,0.4l0.5-4.1L62,25.5l0.4-3l11.2-0.6
			c0.9-0.1,1.6-0.8,1.7-1.7C75.1,19.3,74.3,18.5,73.3,18.4z M55.2,26.6l-4.3,18l-0.8,3.3l-4.6,0.3L27,49.3l-3,0.1l1.5-5.1l5.1-17.8
			l0.6-2.3l1-0.1L50,23.2l5.7-0.3h0.5L55.2,26.6z"/>
	</g>
</g>
</svg>
